# xmcd
#
# Track frame offsets:
#	150
#	16159
#	28209
#	45719
#	64142
#	78980
#	94691
#	110557
#	127779
#	146435
#	161858
#	175077
#	189527
#	205542
#	221535
#	233628
#	250846
#	264865
#	281313
#	294762
#
# Disc length: 4131 seconds
#
# Revision: 0
# Processed by: cddbd v1.4PL0 Copyright (c) Steve Scherf et al.
# Submitted via: audiograbber 1.81.03
#
DISCID=0a102114
DTITLE=Tanya Tucker - 20 Greatest Hits
DYEAR=2000
DGENRE=Country
TTITLE0=Black Water Bayou (Previously Unreleased)
TTITLE1=Walking Shoes
TTITLE2=Some Kind Of Trouble
TTITLE3=Little Things
TTITLE4=Don't Go Out
TTITLE5=Soon
TTITLE6=Down To My Last Teardrop
TTITLE7=Tell Me About It (Duet With Delbert McClinton)
TTITLE8=Two Sparrows In A Hurricane
TTITLE9=Hangin' In
TTITLE10=It Won't Be Me
TTITLE11=I'll Take Today
TTITLE12=Oh What It Did To Me
TTITLE13=My Arms Stay Open All Night
TTITLE14=It's A Little Too Late
TTITLE15=We Don't Have To Do This
TTITLE16=If Your Heart Ain't Busy Tonight
TTITLE17=Right About Now
TTITLE18=(Without You) What Do I Do With Me
TTITLE19=Delta Dawn
EXTD=
EXTT0=
EXTT1=
EXTT2=
EXTT3=
EXTT4=
EXTT5=
EXTT6=
EXTT7=
EXTT8=
EXTT9=
EXTT10=
EXTT11=
EXTT12=
EXTT13=
EXTT14=
EXTT15=
EXTT16=
EXTT17=
EXTT18=
EXTT19=
PLAYORDER=
